#N canvas 1099 366 450 300 10;
#X obj 91 218 *~;
#X obj 191 65 vsl 15 128 0 1 0 0 empty empty empty 0 -9 0 10 -262144
-1 -1 0 1;
#X obj 191 36 receive ampVolume;
#X text 94 17 Input;
#X text 190 16 Volume in: 0 - 1;
#X obj 92 37 receive~ ampIn;
#X obj 90 248 send~ ampOut;
#X connect 0 0 6 0;
#X connect 1 0 0 1;
#X connect 2 0 1 0;
#X connect 5 0 0 0;
