#N canvas 826 151 835 669 10;
#X obj 117 493 vline~;
#X obj 51 547 *~;
#X msg 117 425 1 \$2 \, \$4 \$3 \$2;
#X msg 262 422 0 \$2;
#X obj 140 183 vsl 15 128 0 300 0 0 empty empty empty 0 -9 0 10 -262144
-1 -1 0 1;
#X obj 225 184 vsl 15 128 0 1 0 0 empty empty empty 0 -9 0 10 -262144
-1 -1 0 1;
#X obj 184 183 vsl 15 128 0 500 0 0 empty empty empty 0 -9 0 10 -262144
-1 -1 0 1;
#X obj 307 184 vsl 15 128 0 1000 0 0 empty empty empty 0 -9 0 10 -262144
-1 -1 0 1;
#X floatatom 140 319 5 0 0 0 - - -;
#X floatatom 225 320 5 0 0 0 - - -;
#X floatatom 184 319 5 0 0 0 - - -;
#X floatatom 307 320 5 0 0 0 - - -;
#X obj 117 378 pack f f f f;
#X obj 262 392 pack f f;
#X obj 262 362 sel 0;
#X obj 140 65 receive envDecay;
#X obj 184 86 receive envAttack;
#X obj 225 109 receive envRelease;
#X obj 307 153 receive envSustain;
#X obj 262 130 receive envVelocity;
#X obj 117 40 receive envNoteOn;
#X obj 52 20 receive~ envIn;
#X obj 52 586 send~ envOut;
#X text 438 16 envIn: audio in;
#X text 437 36 envNoteOn: note on signal from stripote object;
#X text 436 59 envDecay: 0 - 300ms;
#X text 438 101 envRelease: 0 - 1;
#X text 437 81 envAttack: 0 - 500ms;
#X text 439 122 envVelocity: velocity from stripnote object;
#X text 440 147 envSustain: 0 - 1000;
#X connect 0 0 1 1;
#X connect 1 0 22 0;
#X connect 2 0 0 0;
#X connect 3 0 0 1;
#X connect 4 0 8 0;
#X connect 5 0 9 0;
#X connect 6 0 10 0;
#X connect 7 0 11 0;
#X connect 8 0 12 1;
#X connect 9 0 12 3;
#X connect 10 0 12 2;
#X connect 11 0 13 1;
#X connect 12 0 2 0;
#X connect 13 0 3 0;
#X connect 14 0 13 0;
#X connect 15 0 4 0;
#X connect 16 0 6 0;
#X connect 17 0 5 0;
#X connect 18 0 7 0;
#X connect 19 0 14 0;
#X connect 20 0 12 0;
#X connect 21 0 1 0;
