#N canvas 781 160 835 669 10;
#X obj 117 493 vline~;
#X obj 51 547 *~;
#X msg 117 425 1 \$2 \, \$4 \$3 \$2;
#X msg 262 422 0 \$2;
#X obj 140 183 vsl 15 128 0 300 0 0 empty empty empty 0 -9 0 10 -262144
-1 -1 0 1;
#X obj 225 184 vsl 15 128 0 1 0 0 empty empty empty 0 -9 0 10 -262144
-1 -1 0 1;
#X obj 184 183 vsl 15 128 0 500 0 0 empty empty empty 0 -9 0 10 -262144
-1 -1 0 1;
#X obj 267 185 vsl 15 128 0 1000 0 0 empty empty empty 0 -9 0 10 -262144
-1 -1 0 1;
#X floatatom 140 319 5 0 0 0 - - -;
#X floatatom 225 320 5 0 0 0 - - -;
#X floatatom 184 319 5 0 0 0 - - -;
#X floatatom 267 321 5 0 0 0 - - -;
#X obj 117 378 pack f f f f;
#X obj 262 392 pack f f;
#X obj 262 362 sel 0;
#X obj 184 84 receive envDecay;
#X obj 140 62 receive envAttack;
#X obj 267 152 receive envRelease;
#X obj 225 105 receive envSustain;
#X obj 117 40 receive envNoteOn;
#X text 438 32 envIn: audio in;
#X text 437 79 envDecay: 0 - 300ms;
#X text 436 62 envAttack: 0 - 500ms;
#X obj 51 571 snapshot~;
#X obj 51 598 send envOut;
#X obj 52 45 sig~;
#X obj 52 20 receive envIn;
#X text 437 97 envSustain: 0 - 1;
#X text 437 114 envRelease: 0 - 100ms;
#X text 437 46 envNoteOn: 1 for on \, 0 for off;
#X connect 0 0 1 1;
#X connect 1 0 23 0;
#X connect 2 0 0 0;
#X connect 3 0 0 0;
#X connect 4 0 8 0;
#X connect 5 0 9 0;
#X connect 6 0 10 0;
#X connect 7 0 11 0;
#X connect 8 0 12 1;
#X connect 9 0 12 3;
#X connect 10 0 12 2;
#X connect 11 0 13 1;
#X connect 12 0 2 0;
#X connect 13 0 3 0;
#X connect 14 0 13 0;
#X connect 15 0 6 0;
#X connect 16 0 4 0;
#X connect 17 0 7 0;
#X connect 18 0 5 0;
#X connect 19 0 12 0;
#X connect 19 0 14 0;
#X connect 23 0 24 0;
#X connect 25 0 1 0;
#X connect 26 0 25 0;
