#N canvas 1183 272 628 522 10;
#X obj 197 450 dac~;
#X obj 205 370 *~;
#X obj 220 340 tgl 15 0 empty empty empty 17 7 0 10 -262144 -1 -1 1
1;
#X obj 204 245 bp~ 440 440 1;
#X obj 69 122 noise~;
#X floatatom 279 144 5 0 0 0 - - -;
#X obj 68 364 *~;
#X obj 83 340 tgl 15 0 empty empty empty 17 7 0 10 -262144 -1 -1 0
1;
#X obj 68 248 lop~ 440;
#X obj 406 250 hip~;
#X obj 405 366 *~;
#X obj 420 335 tgl 15 0 empty empty empty 17 7 0 10 -262144 -1 -1 0
1;
#X text 66 94 Input;
#X text 428 93 Filter frequency;
#X obj 279 120 receive fltResonance;
#X obj 83 299 receive fltLoOn;
#X obj 220 301 receive fltBandOn;
#X obj 420 304 receive fltHighOn;
#X obj 427 120 receive fltFrequency;
#X floatatom 427 148 5 0 0 0 - - -;
#X connect 1 0 0 0;
#X connect 1 0 0 1;
#X connect 2 0 1 1;
#X connect 3 0 1 0;
#X connect 4 0 3 0;
#X connect 4 0 8 0;
#X connect 4 0 9 0;
#X connect 5 0 3 2;
#X connect 6 0 0 0;
#X connect 6 0 0 1;
#X connect 7 0 6 1;
#X connect 8 0 6 0;
#X connect 9 0 10 0;
#X connect 10 0 0 1;
#X connect 10 0 0 0;
#X connect 11 0 10 1;
#X connect 14 0 5 0;
#X connect 15 0 7 0;
#X connect 16 0 2 0;
#X connect 17 0 11 0;
#X connect 18 0 19 0;
#X connect 19 0 9 1;
#X connect 19 0 8 1;
