#N canvas 347 384 1820 1205 10;
#X obj 18 99 r midi_1;
#X obj 224 112 r midi_2;
#X obj 408 111 r midi_3;
#X obj 632 105 r midi_4;
#X obj 120 17 r midi_setting;
#X obj 689 350 s midi_setting;
#X obj 689 277 bng 15 250 50 0 empty empty empty 17 7 0 10 -262144
-1 -1;
#X obj 23 178 spigot;
#X obj 71 147 tgl 15 0 empty empty empty 17 7 0 10 -262144 -1 -1 0
1;
#X obj 597 271 bng 15 250 50 0 empty empty empty 17 7 0 10 -262144
-1 -1;
#X obj 577 372 s midi_1;
#X obj 214 181 spigot;
#X obj 20 139 mtof;
#X obj 215 143 mtof;
#X obj 407 149 mtof;
#X obj 623 139 mtof;
#X obj 395 186 spigot;
#X obj 620 176 spigot;
#X obj 288 160 tgl 15 0 empty empty empty 17 7 0 10 -262144 -1 -1 0
1;
#X obj 469 153 tgl 15 0 empty empty empty 17 7 0 10 -262144 -1 -1 0
1;
#X obj 673 132 tgl 15 0 empty empty empty 17 7 0 10 -262144 -1 -1 0
1;
#X floatatom 8 243 5 0 0 0 - - -;
#X msg 585 313 45;
#X obj 710 129 spigot;
#X obj 705 89 r clear_midi;
#X obj 823 352 s clear_midi;
#X obj 805 302 bng 15 250 50 0 empty empty empty 17 7 0 10 -262144
-1 -1;
#X obj 515 150 spigot;
#X obj 500 111 r clear_midi;
#X obj 325 157 spigot;
#X obj 298 114 r clear_midi;
#X obj 124 148 spigot;
#X obj 109 109 r clear_midi;
#X obj 38 220 s out_midi_1;
#X obj 189 218 s out_midi_2;
#X obj 389 216 s out_midi_3;
#X obj 596 216 s out_midi_4;
#X obj 121 71 select 1 2 3 4, f 86;
#X obj 26 436 r midi_1_on;
#X floatatom 24 473 5 0 0 0 - - -;
#X obj 24 492 s midi_1_on;
#X floatatom 133 476 5 0 0 0 - - -;
#X floatatom 227 475 5 0 0 0 - - -;
#X floatatom 313 479 5 0 0 0 - - -;
#X obj 135 438 r midi_2_on;
#X obj 133 494 s midi_2_on;
#X text 36 393 Note on/off send and receive for all 4 notes;
#X obj 229 438 r midi_3 _on;
#X obj 227 494 s midi_3_on;
#X obj 316 441 r midi_4_on;
#X obj 313 497 s midi_4_on;
#X text 250 21 Midi settings (1 \, 2 \, 3 \, 4 notes at a time) as
well as midi note in and out;
#X msg 692 311 4;
#X text 515 410 Tester buttons. For implementation I want to have android
studio send the clear_midi which will reset the spigots;
#X connect 0 0 12 0;
#X connect 1 0 13 0;
#X connect 2 0 14 0;
#X connect 3 0 15 0;
#X connect 4 0 37 0;
#X connect 6 0 52 0;
#X connect 7 0 21 0;
#X connect 7 0 33 0;
#X connect 8 0 7 1;
#X connect 8 0 31 1;
#X connect 9 0 22 0;
#X connect 11 0 34 0;
#X connect 12 0 7 0;
#X connect 13 0 11 0;
#X connect 14 0 16 0;
#X connect 15 0 17 0;
#X connect 16 0 35 0;
#X connect 17 0 36 0;
#X connect 18 0 11 1;
#X connect 18 0 29 1;
#X connect 19 0 16 1;
#X connect 19 0 27 1;
#X connect 20 0 17 1;
#X connect 20 0 23 1;
#X connect 22 0 10 0;
#X connect 23 0 20 0;
#X connect 24 0 23 0;
#X connect 26 0 25 0;
#X connect 27 0 19 0;
#X connect 28 0 27 0;
#X connect 29 0 18 0;
#X connect 30 0 29 0;
#X connect 31 0 8 0;
#X connect 32 0 31 0;
#X connect 37 0 8 0;
#X connect 37 1 18 0;
#X connect 37 1 8 0;
#X connect 37 2 8 0;
#X connect 37 2 18 0;
#X connect 37 2 19 0;
#X connect 37 3 20 0;
#X connect 37 3 19 0;
#X connect 37 3 18 0;
#X connect 37 3 8 0;
#X connect 38 0 39 0;
#X connect 39 0 40 0;
#X connect 41 0 45 0;
#X connect 42 0 48 0;
#X connect 43 0 50 0;
#X connect 44 0 41 0;
#X connect 47 0 42 0;
#X connect 49 0 43 0;
#X connect 52 0 5 0;
