#N canvas -13 -13 2736 1740 10;
#X obj 691 470 s midi_3;
#X obj 1239 428 s midi_4;
#X obj 489 464 s midi_1;
#X obj 257 507 s midi_2;
#X obj 515 494 s midi_1_on;
#X obj 284 540 s midi_2_on;
#X obj 727 441 s midi_3_on;
#X obj 1264 406 s midi_4_on;
#X obj 486 70 select 1 2 3 4;
#X obj 493 43 r midi_setting;
#X obj 107 281 spigot;
#X obj 136 240 tgl 15 0 empty empty empty 17 7 0 10 -262144 -1 -1 0
1;
#X obj 64 200 notein;
#X obj 48 279 spigot;
#X obj 19 339 s midi_1;
#X obj 95 343 s midi_1_on;
#X obj 320 286 spigot;
#X obj 310 249 tgl 15 0 empty empty empty 17 7 0 10 -262144 -1 -1 0
1;
#X obj 261 283 spigot;
#X obj 258 253 notein;
#X obj 275 380 pack f f f;
#X obj 267 433 route 1 2;
#X obj 686 261 spigot;
#X obj 676 224 tgl 15 0 empty empty empty 17 7 0 10 -262144 -1 -1 0
1;
#X obj 627 258 spigot;
#X obj 624 228 notein;
#X obj 641 355 pack f f f;
#X obj 653 305 poly 3;
#X obj 617 383 route 1 2 3;
#X obj 1040 226 spigot;
#X obj 982 186 tgl 15 0 empty empty empty 17 7 0 10 -262144 -1 -1 0
1;
#X obj 981 224 spigot;
#X obj 1015 182 notein;
#X obj 995 320 pack f f f;
#X obj 1007 270 poly 4;
#X obj 987 374 route 1 2 3 4;
#X obj 234 21 r clear_setting;
#X obj 848 32 r clear_setting;
#X obj 192 477 unpack f f;
#X obj 272 475 unpack f f;
#X obj 287 330 poly 2 0;
#X obj 136 508 s midi_1;
#X obj 180 530 s midi_1_on;
#X obj 540 429 unpack f f;
#X obj 698 412 unpack f f;
#X obj 617 421 unpack f f;
#X obj 598 469 s midi_2;
#X obj 623 498 s midi_2_on;
#X obj 1120 467 s midi_3;
#X obj 912 454 s midi_1;
#X obj 938 484 s midi_1_on;
#X obj 1156 438 s midi_3_on;
#X obj 963 419 unpack f f;
#X obj 1127 409 unpack f f;
#X obj 1037 419 unpack f f;
#X obj 1018 467 s midi_2;
#X obj 1043 496 s midi_2_on;
#X obj 1204 380 unpack f f;
#X obj 185 236 spigot;
#X obj 450 645 bng 15 250 50 0 empty empty empty 17 7 0 10 -262144
-1 -1;
#X obj 450 681 s clear_setting;
#X floatatom 48 298 5 0 0 0 - - -;
#X obj 354 246 spigot;
#X obj 724 219 spigot;
#X obj 898 181 spigot;
#X text 428 721 Test for reseting the settings;
#X text 36 389 Monophony format;
#X text 210 585 Bipony format;
#X text 580 552 Triphony format;
#X text 976 536 quadphony format;
#X connect 8 0 11 0;
#X connect 8 1 17 0;
#X connect 8 2 23 0;
#X connect 8 3 30 0;
#X connect 9 0 8 0;
#X connect 10 0 15 0;
#X connect 11 0 10 1;
#X connect 11 0 13 1;
#X connect 11 0 58 1;
#X connect 12 0 13 0;
#X connect 12 1 10 0;
#X connect 13 0 14 0;
#X connect 13 0 61 0;
#X connect 16 0 40 1;
#X connect 17 0 16 1;
#X connect 17 0 18 1;
#X connect 17 0 62 1;
#X connect 18 0 40 0;
#X connect 19 0 18 0;
#X connect 19 1 16 0;
#X connect 20 0 21 0;
#X connect 21 0 38 0;
#X connect 21 1 39 0;
#X connect 22 0 27 1;
#X connect 23 0 22 1;
#X connect 23 0 24 1;
#X connect 23 0 63 1;
#X connect 24 0 27 0;
#X connect 25 0 24 0;
#X connect 25 1 22 0;
#X connect 26 0 28 0;
#X connect 27 0 26 0;
#X connect 27 1 26 1;
#X connect 27 2 26 2;
#X connect 28 0 43 0;
#X connect 28 1 45 0;
#X connect 28 2 44 0;
#X connect 29 0 34 1;
#X connect 30 0 29 1;
#X connect 30 0 31 1;
#X connect 30 0 64 1;
#X connect 31 0 34 0;
#X connect 32 0 31 0;
#X connect 32 1 29 0;
#X connect 33 0 35 0;
#X connect 34 0 33 0;
#X connect 34 1 33 1;
#X connect 34 2 33 2;
#X connect 35 0 52 0;
#X connect 35 1 54 0;
#X connect 35 2 53 0;
#X connect 35 3 57 0;
#X connect 36 0 58 0;
#X connect 36 0 62 0;
#X connect 37 0 63 0;
#X connect 37 0 64 0;
#X connect 38 0 41 0;
#X connect 38 1 42 0;
#X connect 39 0 3 0;
#X connect 39 1 5 0;
#X connect 40 0 20 0;
#X connect 40 1 20 1;
#X connect 40 2 20 2;
#X connect 43 0 2 0;
#X connect 43 1 4 0;
#X connect 44 0 0 0;
#X connect 44 1 6 0;
#X connect 45 0 46 0;
#X connect 45 1 47 0;
#X connect 52 0 49 0;
#X connect 52 1 50 0;
#X connect 53 0 48 0;
#X connect 53 1 51 0;
#X connect 54 0 55 0;
#X connect 54 1 56 0;
#X connect 57 0 1 0;
#X connect 57 1 7 0;
#X connect 58 0 11 0;
#X connect 59 0 60 0;
#X connect 62 0 17 0;
#X connect 63 0 23 0;
#X connect 64 0 30 0;
