#N canvas 652 99 1138 651 10;
#X obj 101 215 cos~;
#X obj 100 174 phasor~ 440;
#X obj 102 262 *~;
#X obj 142 245 tgl 15 0 empty empty empty 17 7 0 10 -262144 -1 -1 0
1;
#X obj 242 172 phasor~ 440;
#X obj 243 267 min~;
#X obj 244 291 *~ 4;
#X obj 244 316 -~ 1;
#X obj 262 208 *~ -1;
#X obj 263 233 +~ 1;
#X obj 284 314 tgl 15 0 empty empty empty 17 7 0 10 -262144 -1 -1 0
1;
#X obj 245 351 *~;
#X obj 418 171 phasor~ 440;
#X obj 418 252 -~ 1;
#X obj 463 251 tgl 15 0 empty empty empty 17 7 0 10 -262144 -1 -1 0
1;
#X obj 419 287 *~;
#X obj 418 227 *~ 2;
#X obj 142 217 receive oscSine;
#X obj 284 291 receive oscTriangle;
#X obj 463 226 receive oscSquare;
#X obj 418 200 expr~ ($v1 < 0.5);
#X obj 242 106 mtof;
#X obj 242 74 stripnote;
#X obj 589 18 notein;
#X obj 294 108 send noteOut;
#X text 384 107 noteOut: the note on info from stripnote;
#X obj 521 525 snapshot~;
#X obj 521 558 send oscOut;
#X obj 605 208 cos~;
#X obj 604 167 phasor~ 440;
#X obj 589 287 *~;
#X obj 620 269 tgl 15 0 empty empty empty 17 7 0 10 -262144 -1 -1 0
1;
#X obj 746 169 phasor~ 440;
#X obj 747 264 min~;
#X obj 748 288 *~ 4;
#X obj 748 313 -~ 1;
#X obj 766 205 *~ -1;
#X obj 767 230 +~ 1;
#X obj 787 342 tgl 15 0 empty empty empty 17 7 0 10 -262144 -1 -1 0
1;
#X obj 732 376 *~;
#X obj 943 173 phasor~ 440;
#X obj 943 254 -~ 1;
#X obj 976 288 tgl 15 0 empty empty empty 17 7 0 10 -262144 -1 -1 0
1;
#X obj 929 320 *~;
#X obj 943 229 *~ 2;
#X obj 620 245 receive oscSine;
#X obj 787 319 receive oscTriangle;
#X obj 976 254 receive oscSquare;
#X obj 943 202 expr~ ($v1 < 0.5);
#X obj 509 330 receive oscFMOn;
#X obj 509 356 tgl 15 0 empty empty empty 17 7 0 10 -262144 -1 -1 0
1;
#X obj 246 433 *~;
#X obj 717 433 *~;
#X obj 589 245 +~;
#X obj 733 344 +~;
#X obj 928 288 +~;
#X obj 943 71 receive oscFreq;
#X floatatom 943 92 5 0 0 0 - - -;
#X obj 509 426 tgl 15 0 empty empty empty 17 7 0 10 -262144 -1 -1 1
1;
#X obj 509 376 sel 0;
#X msg 536 401 0;
#X text 640 17 replace notein with audio in;
#X connect 0 0 2 0;
#X connect 1 0 0 0;
#X connect 2 0 51 0;
#X connect 3 0 2 1;
#X connect 4 0 8 0;
#X connect 4 0 5 0;
#X connect 5 0 6 0;
#X connect 6 0 7 0;
#X connect 7 0 11 0;
#X connect 8 0 9 0;
#X connect 9 0 5 1;
#X connect 10 0 11 1;
#X connect 11 0 51 0;
#X connect 12 0 20 0;
#X connect 13 0 15 0;
#X connect 14 0 15 1;
#X connect 15 0 51 0;
#X connect 16 0 13 0;
#X connect 17 0 3 0;
#X connect 18 0 10 0;
#X connect 19 0 14 0;
#X connect 20 0 16 0;
#X connect 21 0 1 0;
#X connect 21 0 4 0;
#X connect 21 0 12 0;
#X connect 22 0 24 0;
#X connect 22 0 21 0;
#X connect 23 0 22 0;
#X connect 23 0 22 1;
#X connect 23 0 53 0;
#X connect 23 0 54 0;
#X connect 23 0 55 0;
#X connect 26 0 27 0;
#X connect 28 0 53 1;
#X connect 29 0 28 0;
#X connect 30 0 52 1;
#X connect 31 0 30 1;
#X connect 32 0 36 0;
#X connect 32 0 33 0;
#X connect 33 0 34 0;
#X connect 34 0 35 0;
#X connect 35 0 54 1;
#X connect 36 0 37 0;
#X connect 37 0 33 1;
#X connect 38 0 39 1;
#X connect 39 0 52 1;
#X connect 40 0 48 0;
#X connect 41 0 55 1;
#X connect 42 0 43 1;
#X connect 43 0 52 1;
#X connect 44 0 41 0;
#X connect 45 0 31 0;
#X connect 46 0 38 0;
#X connect 47 0 42 0;
#X connect 48 0 44 0;
#X connect 49 0 50 0;
#X connect 50 0 59 0;
#X connect 50 0 52 0;
#X connect 51 0 26 0;
#X connect 52 0 26 0;
#X connect 53 0 30 0;
#X connect 54 0 39 0;
#X connect 55 0 43 0;
#X connect 56 0 57 0;
#X connect 57 0 32 0;
#X connect 57 0 29 0;
#X connect 57 0 40 0;
#X connect 58 0 51 1;
#X connect 59 0 58 0;
#X connect 59 1 60 0;
#X connect 60 0 58 0;
