#N canvas 1120 203 670 547 10;
#X obj 101 215 cos~;
#X obj 100 174 phasor~ 440;
#X obj 102 262 *~;
#X obj 142 245 tgl 15 0 empty empty empty 17 7 0 10 -262144 -1 -1 0
1;
#X obj 242 172 phasor~ 440;
#X obj 243 267 min~;
#X obj 244 291 *~ 4;
#X obj 244 316 -~ 1;
#X obj 262 208 *~ -1;
#X obj 263 233 +~ 1;
#X obj 284 314 tgl 15 0 empty empty empty 17 7 0 10 -262144 -1 -1 0
1;
#X obj 245 351 *~;
#X obj 418 171 phasor~ 440;
#X obj 418 252 -~ 1;
#X obj 463 251 tgl 15 0 empty empty empty 17 7 0 10 -262144 -1 -1 0
1;
#X obj 419 287 *~;
#X obj 418 227 *~ 2;
#X obj 142 217 receive oscSine;
#X obj 284 291 receive oscTriangle;
#X obj 463 226 receive oscSquare;
#X obj 418 200 expr~ ($v1 < 0.5);
#X obj 242 106 mtof;
#X obj 242 74 stripnote;
#X obj 242 41 notein;
#X obj 294 108 send noteOut;
#X text 384 107 noteOut: the note on info from stripnote;
#X obj 246 391 snapshot~;
#X obj 246 424 send oscOut;
#X connect 0 0 2 0;
#X connect 1 0 0 0;
#X connect 2 0 26 0;
#X connect 3 0 2 1;
#X connect 4 0 8 0;
#X connect 4 0 5 0;
#X connect 5 0 6 0;
#X connect 6 0 7 0;
#X connect 7 0 11 0;
#X connect 8 0 9 0;
#X connect 9 0 5 1;
#X connect 10 0 11 1;
#X connect 11 0 26 0;
#X connect 12 0 20 0;
#X connect 13 0 15 0;
#X connect 14 0 15 1;
#X connect 15 0 26 0;
#X connect 16 0 13 0;
#X connect 17 0 3 0;
#X connect 18 0 10 0;
#X connect 19 0 14 0;
#X connect 20 0 16 0;
#X connect 21 0 1 0;
#X connect 21 0 4 0;
#X connect 21 0 12 0;
#X connect 22 0 21 0;
#X connect 22 0 24 0;
#X connect 23 0 22 0;
#X connect 23 0 22 1;
#X connect 26 0 27 0;
