#N canvas 1120 203 670 547 10;
#X floatatom 228 22 5 0 0 0 - - -;
#X obj 87 148 cos~;
#X obj 221 358 dac~;
#X obj 86 107 phasor~ 440;
#X obj 88 195 *~;
#X obj 128 178 tgl 15 0 empty empty empty 17 7 0 10 -262144 -1 -1 0
1;
#X obj 228 105 phasor~ 440;
#X obj 229 200 min~;
#X obj 230 224 *~ 4;
#X obj 230 249 -~ 1;
#X obj 248 141 *~ -1;
#X obj 249 166 +~ 1;
#X obj 270 247 tgl 15 0 empty empty empty 17 7 0 10 -262144 -1 -1 0
1;
#X obj 231 284 *~;
#X obj 404 104 phasor~ 440;
#X obj 404 185 -~ 1;
#X obj 449 184 tgl 15 0 empty empty empty 17 7 0 10 -262144 -1 -1 0
1;
#X obj 405 220 *~;
#X obj 404 133 expr~ (\$1 < 0.5);
#X obj 404 160 *~ 2;
#X obj 128 150 receive oscSine;
#X obj 270 224 receive oscTriangle;
#X obj 449 159 receive oscSquare;
#X connect 0 0 3 0;
#X connect 0 0 6 0;
#X connect 0 0 14 0;
#X connect 1 0 4 0;
#X connect 3 0 1 0;
#X connect 4 0 2 0;
#X connect 4 0 2 1;
#X connect 5 0 4 1;
#X connect 6 0 10 0;
#X connect 6 0 7 0;
#X connect 7 0 8 0;
#X connect 8 0 9 0;
#X connect 9 0 13 0;
#X connect 10 0 11 0;
#X connect 11 0 7 1;
#X connect 12 0 13 1;
#X connect 13 0 2 0;
#X connect 13 0 2 1;
#X connect 14 0 18 0;
#X connect 15 0 17 0;
#X connect 16 0 17 1;
#X connect 17 0 2 0;
#X connect 17 0 2 1;
#X connect 18 0 19 0;
#X connect 19 0 15 0;
#X connect 20 0 5 0;
#X connect 21 0 12 0;
#X connect 22 0 16 0;
